#!OML:ASF H:\Dans Jumps\Project 1\Capture day 1\Session 1\subject.ASF
:FULLY-SPECIFIED
:DEGREES
545
root -0.0378892 17.6802 10.348 7.76777 -2.52896 -1.54985
lowerback 0.134402 -0.237483 0.239889
upperback 1.51993 -0.340435 1.71729
thorax 1.49033 -0.179586 1.62118
lowerneck -14.5022 0.409738 -1.77213
upperneck 15.429 0.809194 0.778973
head 7.10345 0.353661 0.626809
rclavicle -8.10048e-015 1.07344e-014
rhumerus -19.8707 -15.5355 -83.1695
rradius 23.735
rwrist 34.2959
rhand -22.7754 -28.5299
rfingers 7.12502
rthumb 3.66004 -58.4782
lclavicle -8.10048e-015 1.07344e-014
lhumerus -21.6827 -6.99683 93.3967
lradius 18.2941
lwrist 5.34203
lhand -25.5794 -6.79115
lfingers 7.12502
lthumb 0.951965 23.1865
rfemur -15.4864 -0.799225 20.4856
rtibia 22.542
rfoot -13.4762 -2.49289
rtoes 4.94101
lfemur -15.9533 8.49851 -18.5177
ltibia 20.5124
lfoot -9.73846 4.98641
ltoes -10.7429
546
root -0.0430507 17.6802 10.3611 7.74523 -2.47164 -1.55785
lowerback 0.0754737 -0.227865 0.234276
upperback 1.51516 -0.328167 1.71318
thorax 1.51819 -0.173547 1.62005
lowerneck -14.5723 0.393866 -1.78768
upperneck 15.396 0.787449 0.806489
head 7.10497 0.345111 0.636219
rclavicle -5.96354e-016 -7.95139e-016
rhumerus -19.7899 -15.7017 -83.1478
rradius 23.6899
rwrist 34.3986
rhand -22.7154 -28.4945
rfingers 7.12502
rthumb 3.71794 -58.4419
lclavicle -5.96354e-016 -7.95139e-016
lhumerus -21.7791 -6.65307 93.2295
lradius 18.1646
lwrist 5.10577
lhand -25.613 -6.83163
lfingers 7.12502
lthumb 0.9195 23.1461
rfemur -15.378 -0.827841 20.5142
rtibia 22.494
rfoot -13.5083 -2.52561
rtoes 4.95017
lfemur -15.8683 8.46794 -18.4794
ltibia 20.4856
lfoot -9.77182 4.99131
ltoes -10.8019
547
root -0.0480967 17.6801 10.3739 7.71982 -2.40785 -1.55362
lowerback 0.017632 -0.221069 0.217298
upperback 1.51528 -0.319584 1.70633
thorax 1.5506 -0.16951 1.62245
lowerneck -14.6525 0.380863 -1.79362
upperneck 15.3625 0.769814 0.822273
head 7.10812 0.338038 0.640693
rclavicle -5.26779e-015 8.74653e-015
rhumerus -19.711 -15.8944 -83.1201
rradius 23.6366
rwrist 34.5262
rhand -22.6517 -28.4832
rfingers 7.12502
rthumb 3.77945 -58.4294
lclavicle -5.26779e-015 8.74653e-015
lhumerus -21.8669 -6.28357 93.0488
lradius 18.0306
lwrist 4.85584
lhand -25.6388 -6.85284
lfingers 7.12502
lthumb 0.894624 23.125
rfemur -15.2742 -0.871363 20.5296
rtibia 22.4589
rfoot -13.5467 -2.55052
rtoes 4.95837
lfemur -15.7818 8.43082 -18.4558
ltibia 20.4565
lfoot -9.80262 4.99609
ltoes -10.8591
548
root -0.0530264 17.6799 10.3863 7.69543 -2.33556 -1.54519
lowerback -0.0391227 -0.216844 0.197764
upperback 1.51681 -0.314373 1.6985
thorax 1.58396 -0.167198 1.62525
lowerneck -14.7169 0.36494 -1.8006
upperneck 15.31 0.748472 0.836169
head 7.10244 0.329046 0.644177
rclavicle -6.60959e-015 1.74931e-014
rhumerus -19.6401 -16.1119 -83.0859
rradius 23.5788
rwrist 34.6708
rhand -22.5978 -28.4798
rfingers 7.12502
rthumb 3.83152 -58.4251
lclavicle -6.60959e-015 1.74931e-014
lhumerus -21.9498 -5.89017 92.8565
lradius 17.8917
lwrist 4.59555
lhand -25.7089 -6.93828
lfingers 7.12502
lthumb 0.826902 23.0399
rfemur -15.178 -0.932239 20.5409
rtibia 22.4345
rfoot -13.5885 -2.56742
rtoes 4.96195
lfemur -15.7004 8.38786 -18.4385
ltibia 20.4279
lfoot -9.82801 4.9969
ltoes -10.9241
